HIERARCHY
ROOT Hips
{
  OFFSET 4.78033 98.209 -74.6515
  CHANNELS 6 Xposition Yposition Zposition Zrotation Xrotation Yrotation
  JOINT ToSpine
  {
    OFFSET -2.69724 7.43032 -0.144315
    CHANNELS 3 Zrotation Xrotation Yrotation
    JOINT Spine
    {
      OFFSET -0.0310711 10.7595 1.96963
      CHANNELS 3 Zrotation Xrotation Yrotation
      JOINT Spine1
      {
        OFFSET 13.1342 3.43533 0.764692
        CHANNELS 3 Zrotation Xrotation Yrotation
        JOINT Neck
        {
          OFFSET 29.8703 7.82586 -0.130764
          CHANNELS 3 Zrotation Xrotation Yrotation
          JOINT Head
          {
            OFFSET 9.52751 0.295786 -0.907742
            CHANNELS 3 Zrotation Xrotation Yrotation
            End Site
            {
              OFFSET 16.4037 0.713936 2.7358
            }
          }
        }
        JOINT LeftShoulder
        {
          OFFSET 27.5574 4.95586 2.47156
          CHANNELS 3 Zrotation Xrotation Yrotation
          JOINT LeftArm
          {
            OFFSET 1.20734 -0.998971 20.1238
            CHANNELS 3 Zrotation Xrotation Yrotation
            JOINT LeftForeArm
            {
              OFFSET 26.8049 -0.0536703 -0.155908
              CHANNELS 3 Zrotation Xrotation Yrotation
              JOINT LeftHand
              {
                OFFSET 26.6817 0 0.320147
                CHANNELS 3 Zrotation Xrotation Yrotation
                End Site
                {
                  OFFSET 18.6119 0 0.382219
                }
              }
            }
          }
        }
        JOINT RightShoulder
        {
          OFFSET 27.5927 4.71444 -2.65209
          CHANNELS 3 Zrotation Xrotation Yrotation
          JOINT RightArm
          {
            OFFSET 2.83739 -1.17114 -18.7564
            CHANNELS 3 Zrotation Xrotation Yrotation
            JOINT RightForeArm
            {
              OFFSET 28.839 -0.0548439 1.22491
              CHANNELS 3 Zrotation Xrotation Yrotation
              JOINT RightHand
              {
                OFFSET 26.5114 0 -0.101894
                CHANNELS 3 Zrotation Xrotation Yrotation
                End Site
                {
                  OFFSET 18.2168 0 0
                }
              }
            }
          }
        }
      }
    }
  }
  JOINT LeftUpLeg
  {
    OFFSET -4.76168 -1.9167 -10.2353
    CHANNELS 3 Zrotation Xrotation Yrotation
    JOINT LeftLeg
    {
      OFFSET 2.55951 -42.0585 -8.02213
      CHANNELS 3 Zrotation Xrotation Yrotation
      JOINT LeftFoot
      {
        OFFSET 3.16357 -42.5282 -3.95426
        CHANNELS 3 Zrotation Xrotation Yrotation
        JOINT LeftToeBase
        {
          OFFSET 0.346054 -6.02161 12.8035
          CHANNELS 3 Zrotation Xrotation Yrotation
          End Site
          {
            OFFSET 0.134235 -1.35082 5.13018
          }
        }
      }
    }
  }
  JOINT RightUpLeg
  {
    OFFSET -4.94151 -1.41743 10.6446
    CHANNELS 3 Zrotation Xrotation Yrotation
    JOINT RightLeg
    {
      OFFSET -2.56294 -42.0364 -7.94377
      CHANNELS 3 Zrotation Xrotation Yrotation
      JOINT RightFoot
      {
        OFFSET -3.0952 -42.555 -4.02241
        CHANNELS 3 Zrotation Xrotation Yrotation
        JOINT RightToeBase
        {
          OFFSET -0.0828122 -6.13587 12.8035
          CHANNELS 3 Zrotation Xrotation Yrotation
          End Site
          {
            OFFSET -0.131328 -1.35082 5.13018
          }
        }
      }
    }
  }
}
MOTION
Frames:	6
Frame Time:	0.0333333
3.03852 96.2786 8.10053 67.1446 -34.2875 -13.7987 -70.1915 0 88.8779 75.1603 70.7489 12.5678 12.8146 21.4282 -4.08865 -123.42 19.4814 163.164 -139.416 63.7115 -154.929 0.922183 -9.28394 7.02464 -55.1037 34.9266 -113.139 15.7136 -5.25379 -107.284 0.420957 0.000575414 0.35866 0.681525 10.5278 5.36642 -118.731 -50.7124 42.9176 11.7037 1.34274 95.8846 0.58676 0.000331372 0.0646654 -50.1169 13.5389 89.023 -2.6673 39.1576 -8.07342 -1.60906 -5.48558 -0.388603 2.63813 -6.76026 3.83328 -47.6397 -7.44034 80.0191 2.21041 25.4249 -8.87142 -5.3211 -3.63953 0.950734 0.854988 -3.21463 -3.53239 
3.53968 96.0398 6.63156 67.3622 -34.7226 -13.466 -70.1915 0 88.8779 75.7361 70.4584 12.0216 11.5992 21.0896 -3.47445 -123.449 23.8473 165.078 -144.231 66.9787 -155.652 1.28936 -11.895 7.52384 -56.3879 28.4037 -118.321 14.4873 -3.2737 -101.335 0.420957 0.000575414 0.35866 0.602879 10.0586 6.01457 -102.096 -49.5208 60.7945 12.2692 -0.184165 89.3276 0.58676 0.000331372 0.0646654 -50.7253 12.7273 86.9859 -2.60282 39.0761 -7.64397 -0.968852 -2.71753 -0.199254 2.8053 -7.04875 3.74695 -47.3247 -8.25484 79.7927 2.38395 25.8045 -8.03807 -5.43067 -3.02946 0.942676 0.876739 -3.27433 -3.66507 
4.29956 95.8092 5.25605 67.3614 -35.6272 -13.316 -70.1915 0 88.8779 75.356 69.6979 11.4401 8.96239 20.0817 -1.43491 -125.69 27.9194 168.021 -146.054 69.3183 -162.258 1.30996 -12.6268 3.72484 -57.1999 22.5385 -123.306 16.8153 -1.0772 -93.0499 0.420957 0.000575414 0.35866 0.189943 8.70893 10.5561 -84.2137 -41.6115 82.7009 10.5666 -2.05268 78.9955 0.58676 0.000331372 0.0646654 -52.221 12.2282 85.9588 -2.56341 37.4356 -8.3481 -2.04434 -2.51966 -0.0741014 5.36449 -11.8592 2.40288 -46.9749 -8.94762 79.6113 2.42727 26.0909 -7.7843 -5.41121 -2.27421 0.916266 0.589512 -3.68291 -1.20528 
5.20427 95.5593 3.85719 66.6667 -36.6429 -13.5319 -70.1915 0 88.8779 73.1032 69.0724 11.7554 5.49004 18.6829 2.87784 -130.218 31.8691 172.575 -149.242 71.5582 -169.77 1.20098 -14.2737 -4.1248 -57.1762 17.9756 -126.038 18.3011 1.55369 -84.8368 0.420957 0.000575414 0.35866 -0.135728 6.52377 16.0445 -72.5047 -29.3796 98.3987 9.12687 -3.71425 67.9361 0.58676 0.000331372 0.0646654 -53.4353 12.0278 85.8838 -2.50862 36.0546 -8.72119 -3.73162 -4.7116 -0.124742 6.11346 -13.3003 2.12573 -46.2499 -9.56323 79.4084 2.49934 26.0915 -6.81585 -4.38591 -1.1434 0.758698 0.485891 -4.11748 0.00040092 
6.10435 95.5154 2.41362 65.9393 -37.5147 -13.9682 -70.1915 0 88.8779 73.3234 69.2894 8.58408 0.711083 17.0907 8.62541 -135.444 34.1979 175.934 -148.412 72.6207 179.049 0.687945 -15.2218 -16.2959 -57.8341 14.2956 -125.303 18.7284 3.56077 -78.8602 0.420957 0.000575414 0.35866 -0.202387 3.14817 23.7263 -71.1584 -18.964 102.017 15.1165 -8.25926 61.9685 0.58676 0.000331372 0.0646654 -54.5081 11.7039 87.0031 -2.53379 34.5659 -11.3466 -3.55941 -6.16991 -0.307758 6.80278 -14.9612 6.73079 -45.6809 -10.3165 79.2449 2.50564 25.4298 -5.62784 -3.6519 0.653168 0.594121 0.428175 -4.80045 1.1219 
6.79215 95.3538 0.868498 65.1655 -38.3768 -14.7551 -70.1915 0 88.8779 78.3011 70.019 -0.115359 -5.46074 15.4398 13.9303 -136.437 34.4944 172.941 -142.028 72.2554 167.603 0.00626316 -15.6955 -29.1985 -59.8679 15.6515 -120.456 24.8927 4.59373 -79.3544 0.420957 0.000575414 0.35866 -0.895373 4.3256 36.2233 -79.8725 -15.5508 94.1147 20.7642 -10.0504 65.1877 0.58676 0.000331372 0.0646654 -55.1787 10.9925 88.8487 -2.02236 33.338 -13.6214 -2.65982 -7.30216 -0.490084 7.24883 -15.8654 8.89197 -44.5155 -11.2729 79.2377 2.3306 25.4722 -4.17097 -4.13121 2.65848 0.569299 0.465837 -6.19553 2.5179 
